<svg width="379" height="400" viewBox="0 0 379 400" fill="none" xmlns="http://www.w3.org/2000/svg">
<path d="M19.936 190.034C7.33651 163.109 0.558253 133.724 0.062467 103.88C-0.397565 90.7278 1.6869 77.6119 6.19631 65.2851C10.7057 52.9583 17.5513 41.6631 26.3403 32.0477C35.1293 22.4323 45.6888 14.6858 57.4128 9.2527C69.1369 3.81961 81.7947 0.806846 94.6603 0.387258C111.97 -1.28577 129.367 2.48807 144.521 11.2035C159.675 19.9189 171.864 33.1599 179.454 49.1536V188.679L19.936 190.034Z" fill="#FFDD00"/>
<path d="M179.454 399.998C122.044 342.951 71.8378 278.785 30.0056 208.996H179.454V399.998Z" fill="#52AE32"/>
<path d="M349.046 208.996C307.042 278.662 256.853 342.807 199.597 399.998V208.996H349.046Z" fill="#E30613"/>
<path d="M199.328 49.154C206.948 33.185 219.142 19.9661 234.288 11.255C249.435 2.54394 266.816 -1.24651 284.121 0.387703C296.928 0.773263 309.536 3.7357 321.223 9.10567C332.91 14.4756 343.447 22.1479 352.232 31.6838C361.018 41.2197 367.879 52.4324 372.424 64.6809C376.968 76.9294 379.107 89.9736 378.719 103.068C378.148 132.728 371.371 161.92 358.845 188.68H199.858L199.328 49.154Z" fill="#008BD2"/>
</svg>
