<?xml version="1.0" standalone="no"?>
<!DOCTYPE svg PUBLIC "-//W3C//DTD SVG 20010904//EN"
 "http://www.w3.org/TR/2001/REC-SVG-20010904/DTD/svg10.dtd">
<svg version="1.0" xmlns="http://www.w3.org/2000/svg"
 width="800.000000pt" height="800.000000pt" viewBox="0 0 800.000000 800.000000"
 preserveAspectRatio="xMidYMid meet">
<metadata>
Created by potrace 1.14, written by Peter Selinger 2001-2017
</metadata>
<g transform="translate(0.000000,800.000000) scale(0.100000,-0.100000)"
fill="#000000" stroke="none">
<path d="M2109 7996 c-2 -2 -42 -6 -89 -10 -79 -6 -108 -9 -177 -21 -16 -2
-44 -7 -63 -10 -19 -3 -42 -8 -50 -11 -8 -3 -26 -8 -40 -11 -84 -15 -286 -93
-415 -160 -77 -39 -267 -163 -330 -215 -62 -51 -247 -238 -280 -283 -17 -22
-36 -46 -43 -54 -22 -23 -126 -183 -147 -226 -11 -22 -22 -42 -25 -45 -14 -13
-105 -216 -116 -255 -1 -5 -14 -46 -29 -90 -15 -44 -29 -89 -31 -100 -4 -20
-9 -42 -19 -87 -3 -13 -8 -38 -11 -57 -3 -18 -8 -43 -10 -55 -25 -123 -24
-616 1 -765 2 -14 7 -48 10 -76 7 -64 12 -102 19 -142 3 -18 8 -48 12 -65 3
-18 11 -64 19 -103 8 -38 17 -85 20 -104 3 -19 9 -39 12 -44 3 -6 7 -20 8 -31
1 -12 4 -28 7 -36 7 -17 49 -165 52 -183 2 -7 6 -19 9 -27 5 -14 30 -89 32
-100 1 -3 5 -14 9 -25 4 -11 12 -33 18 -50 6 -16 16 -43 23 -60 8 -16 17 -42
20 -58 4 -15 11 -30 16 -33 5 -3 9 -11 9 -18 0 -8 17 -49 37 -92 20 -44 36
-82 35 -86 -1 -3 21 -8 48 -10 28 -1 50 -1 50 2 0 5 58 4 70 0 3 -1 10 -1 15
0 6 1 237 4 515 5 1304 9 1842 15 1850 20 5 3 11 1 15 -5 4 -6 11 -7 17 -4 6
4 146 8 312 8 l301 2 2 1398 1 1399 -21 41 c-11 23 -24 43 -27 46 -4 3 -16 25
-29 50 -46 93 -166 246 -281 358 -170 166 -392 305 -620 387 -41 15 -82 28
-90 30 -8 2 -35 8 -58 15 -110 29 -219 42 -383 45 -97 2 -178 2 -180 1z"/>
<path d="M5578 7994 c-3 -2 -28 -6 -55 -9 -116 -10 -320 -65 -448 -121 -22
-10 -42 -18 -45 -19 -3 0 -16 -7 -30 -14 -14 -8 -50 -27 -80 -44 -30 -16 -74
-42 -98 -58 -24 -16 -47 -29 -52 -29 -4 0 -10 -4 -12 -8 -1 -4 -21 -21 -43
-37 -135 -101 -309 -285 -390 -415 -15 -25 -31 -47 -34 -50 -4 -3 -12 -16 -18
-30 -7 -14 -27 -50 -44 -80 l-32 -55 2 -555 c6 -1918 9 -2231 15 -2237 7 -7
3127 -12 3159 -5 9 3 24 21 33 41 35 79 43 98 63 143 12 26 21 50 21 52 0 3 5
17 12 33 6 15 12 33 14 38 2 6 24 71 49 145 57 169 59 177 85 280 25 96 29
115 36 150 2 14 7 39 11 55 9 40 8 34 18 90 4 28 10 57 11 65 2 8 6 33 8 55 3
22 8 49 10 61 9 42 23 181 32 314 17 259 6 473 -36 677 -6 29 -11 55 -11 58 0
2 -6 23 -14 45 -8 22 -15 42 -15 45 -5 34 -73 213 -116 302 -50 105 -131 246
-145 251 -5 2 -9 10 -9 18 0 8 -4 14 -10 14 -5 0 -10 6 -10 14 0 8 -3 16 -7
18 -5 2 -28 30 -53 63 -59 78 -216 236 -310 311 -74 59 -181 134 -210 147 -8
4 -31 17 -50 28 -41 25 -126 69 -190 97 -53 24 -229 84 -250 86 -9 1 -20 5
-25 8 -6 3 -26 8 -45 12 -19 3 -46 9 -60 12 -44 9 -115 20 -200 30 -56 6 -427
14 -432 8z"/>
<path d="M847 3758 c20 -35 40 -64 45 -66 4 -2 8 -8 8 -13 0 -13 252 -413 262
-417 4 -2 8 -8 8 -13 0 -10 276 -427 297 -447 7 -7 13 -17 13 -22 0 -5 6 -15
13 -22 6 -7 25 -33 41 -57 16 -25 33 -50 38 -55 4 -6 39 -54 75 -106 37 -52
71 -99 75 -105 5 -5 37 -49 71 -96 84 -117 138 -190 165 -224 4 -5 18 -26 32
-45 13 -19 30 -39 37 -43 7 -4 13 -14 13 -22 0 -7 4 -15 8 -17 4 -1 39 -43 77
-93 38 -49 74 -95 80 -101 5 -6 19 -23 30 -38 11 -16 25 -33 30 -40 6 -6 46
-56 89 -111 44 -55 88 -109 97 -120 10 -11 91 -108 181 -215 89 -107 169 -201
178 -210 8 -9 38 -42 65 -75 28 -32 73 -83 100 -113 28 -31 59 -66 70 -78 39
-44 161 -178 205 -225 25 -26 84 -90 132 -141 48 -51 161 -168 251 -261 l165
-167 -1 1907 -2 1908 -1492 3 -1492 2 36 -62z"/>
<path d="M4207 3813 c-6 -11 -6 -3803 1 -3803 14 0 527 539 727 764 11 12 54
60 95 106 96 106 109 121 145 166 17 20 44 51 60 68 17 18 48 54 70 81 22 28
44 55 50 61 5 6 26 30 45 54 19 24 40 48 45 54 11 12 126 153 185 226 19 24
49 60 65 80 58 72 90 113 99 129 5 9 15 21 21 26 7 6 41 48 76 95 35 47 82
108 104 136 45 58 65 84 124 164 22 30 44 60 48 65 9 11 168 232 193 268 8 12
23 31 32 41 10 11 18 26 18 33 0 7 4 13 8 13 5 0 17 16 28 35 10 19 22 35 26
35 3 0 9 8 12 18 4 10 14 27 24 38 10 10 29 37 42 59 13 22 27 42 30 45 3 3
46 66 95 140 50 74 93 137 97 138 5 2 8 8 8 13 0 6 19 38 42 72 24 34 47 70
53 79 9 16 268 430 303 486 l14 22 -1490 0 c-820 0 -1493 -3 -1495 -7z"/>
</g>
</svg>
