<svg width="1899" height="449" fill="none" xmlns="http://www.w3.org/2000/svg"><path d="M170.3 225.52h54.47V442.6H170.3v-22.94c-10.63 10.11-21.29 17.39-31.99 21.85-10.7 4.46-22.29 6.68-34.78 6.68-28.03 0-52.28-10.87-72.74-32.62C10.33 393.82.1 366.79.1 334.47c0-33.52 9.9-60.98 29.69-82.4 19.8-21.41 43.84-32.12 72.14-32.12 13.02 0 25.24 2.46 36.66 7.38 11.43 4.92 21.99 12.3 31.69 22.15v-23.96h.02zm-57.26 44.69c-16.84 0-30.82 5.95-41.96 17.86s-16.7 27.17-16.7 45.79c0 18.75 5.66 34.19 17 46.29 11.33 12.11 25.29 18.16 41.86 18.16 17.1 0 31.29-5.95 42.55-17.86 11.27-11.9 16.9-27.5 16.9-46.79 0-18.89-5.64-34.18-16.9-45.89-11.26-11.7-25.51-17.56-42.75-17.56zM334.11 442.6h-54.47V225.52h190.34V442.6h-54.47V278h-81.4v164.6zm171.58-217.08H708v51.87h-72.23v165.2H581.3V277.4h-75.62v-51.88h.01zm455.5 124.3H786.21c2.53 15.43 9.28 27.7 20.25 36.81 10.97 9.11 24.97 13.67 42 13.67 20.35 0 37.84-7.11 52.47-21.35l45.89 21.55c-11.44 16.23-25.14 28.23-41.1 36.01-15.96 7.78-34.92 11.67-56.86 11.67-34.05 0-61.79-10.74-83.2-32.22-21.42-21.48-32.12-48.38-32.12-80.71 0-33.12 10.67-60.62 32.02-82.5 21.35-21.88 48.11-32.82 80.31-32.82 34.18 0 61.98 10.94 83.4 32.82 21.41 21.88 32.12 50.78 32.12 86.69l-.2 10.38zm-54.47-42.9c-3.6-12.1-10.69-21.95-21.29-29.53-10.59-7.58-22.88-11.37-36.87-11.37-15.19 0-28.51 4.26-39.97 12.77-7.2 5.32-13.86 14.7-19.99 28.13h118.12zm216.48 49.49h-43.76c-29.57 0-52.32-5.69-68.24-17.06-15.92-11.37-23.88-30.09-23.88-56.16v-57.66h54.47V279c0 19.02 12.76 28.53 38.29 28.53l21.25-.2h21.85v-81.8h54.47V442.6h-54.47v-86.19h.02zm109.34-130.89H1287v81.22l75.01-81.22h66.5l-96.68 105.78 97.87 111.3h-72.24l-64.72-76.67-5.74 6.84v69.83h-54.47V225.52h.01zm379.68 0h54.47V442.6h-54.47v-22.94c-10.63 10.11-21.29 17.39-31.98 21.85-10.7 4.46-22.29 6.68-34.78 6.68-28.03 0-52.28-10.87-72.74-32.62-20.46-21.75-30.69-48.78-30.69-81.1 0-33.52 9.9-60.98 29.69-82.4 19.8-21.41 43.84-32.12 72.14-32.12 13.02 0 25.24 2.46 36.67 7.38 11.42 4.92 21.99 12.3 31.69 22.15v-23.96zm-57.26 44.69c-16.84 0-30.82 5.95-41.96 17.86s-16.7 27.17-16.7 45.79c0 18.75 5.67 34.19 17 46.29 11.33 12.11 25.29 18.16 41.86 18.16 17.1 0 31.29-5.95 42.55-17.86 11.27-11.9 16.9-27.5 16.9-46.79 0-18.89-5.64-34.18-16.9-45.89-11.27-11.7-25.52-17.56-42.75-17.56zm343.68-182.36h-91.72V.74h-45.2v87.11h-91.73v43.61h91.73v87.1h45.2v-87.1h91.72V87.85z" fill="#F96E32"/></svg>