<?xml version="1.0" encoding="utf-8"?><svg viewBox="0 0 20 20" xmlns="http://www.w3.org/2000/svg" xmlns:xlink="http://www.w3.org/1999/xlink"><style>:root>svg{display:none}:root>svg:target{display:block}</style><svg fill="none" viewBox="0 0 20 20" id="icon-arrow-full" xmlns="http://www.w3.org/2000/svg"><path d="M8.506 12.672l-5.661 5.661h3.822V20h-5C.747 20 0 19.253 0 18.333v-5h1.667v3.822l5.66-5.66 1.179 1.178zM18.333 0h-5v1.667h3.822l-5.66 5.66 1.178 1.179 5.66-5.661v3.822H20v-5C20 .747 19.253 0 18.333 0z" fill="currentColor"/></svg><svg fill="none" viewBox="0 0 20 20" id="icon-arrow-sm" xmlns="http://www.w3.org/2000/svg"><path d="M7.84 11.177H2.267c-.62 0-.99.371-.99.99 0 .62.37.99.99.99H5.61L.409 18.36a.972.972 0 000 1.362.972.972 0 001.363 0l5.2-5.2v3.343c0 .495.372.99.992.99.619 0 .743-.619.743-1.114v-5.573c0-.619-.372-.99-.867-.99zM19.604.279a.972.972 0 00-1.362 0l-5.201 5.2V2.26c0-.495-.372-.99-.99-.99-.62 0-.868.37-.868.99v5.573c0 .495.372.867.991.867h5.573a.846.846 0 00.867-.867c0-.496-.372-.99-.991-.99h-3.344l5.202-5.202c.495-.372.495-.99.123-1.362z" fill="currentColor"/></svg><svg fill="none" viewBox="0 0 16 16" id="icon-caret-select" xmlns="http://www.w3.org/2000/svg"><path d="M4.25 7.125L8 10.875l3.75-3.75" stroke="#7CC622" stroke-width="1.5" stroke-linecap="round" stroke-linejoin="round"/></svg><svg fill="none" viewBox="0 0 20 20" id="icon-exchange" xmlns="http://www.w3.org/2000/svg"><g clip-path="url(#dclip0_5588_13102)"><path d="M15.833 0H4.167A4.171 4.171 0 000 4.167v11.666A4.171 4.171 0 004.167 20h11.666A4.171 4.171 0 0020 15.833V4.167A4.171 4.171 0 0015.833 0zm2.5 15.833c0 1.379-1.121 2.5-2.5 2.5H4.167a2.503 2.503 0 01-2.5-2.5V4.167c0-1.379 1.121-2.5 2.5-2.5h11.666c1.379 0 2.5 1.121 2.5 2.5v11.666zM15.833 5v2.5c0 .92-.747 1.667-1.666 1.667h-2.5a.833.833 0 110-1.667h1.653A4.173 4.173 0 0010 5.833a4.172 4.172 0 00-3.93 2.778.834.834 0 01-1.57-.556 5.843 5.843 0 015.5-3.89c1.595 0 3.086.668 4.168 1.773V5a.833.833 0 111.666 0V5zm-.331 6.944A5.843 5.843 0 0110 15.834a5.842 5.842 0 01-4.167-1.773V15a.833.833 0 11-1.666 0v-2.5c0-.92.747-1.667 1.666-1.667h2.5a.833.833 0 110 1.667H6.68c.778 1.03 2 1.667 3.32 1.667a4.172 4.172 0 003.93-2.778.833.833 0 011.572.555z" fill="#A1C44E"/></g><defs><clipPath id="dclip0_5588_13102"><path fill="#fff" d="M0 0h20v20H0z"/></clipPath></defs></svg><svg fill="none" viewBox="0 0 20 20" id="icon-hamburger" xmlns="http://www.w3.org/2000/svg"><path d="M18.75 8.75H1.25a1.25 1.25 0 000 2.5h17.5a1.25 1.25 0 100-2.5zM1.25 5.417h17.5a1.25 1.25 0 100-2.5H1.25a1.25 1.25 0 000 2.5zM18.75 14.583H1.25a1.25 1.25 0 000 2.5h17.5a1.25 1.25 0 100-2.5z" fill="#A1C44E"/></svg><svg fill="none" viewBox="0 0 20 20" id="icon-info" xmlns="http://www.w3.org/2000/svg"><path d="M10 20a10 10 0 1110-10 10.011 10.011 0 01-10 10zm0-18.333A8.333 8.333 0 1018.333 10 8.342 8.342 0 0010 1.667z" fill="currentColor"/><path d="M11.667 15.834H10V10H8.333V8.334H10A1.667 1.667 0 0111.667 10v5.834zM10 6.667a1.25 1.25 0 100-2.5 1.25 1.25 0 000 2.5z" fill="currentColor"/></svg></svg>