<svg width="25" height="25" fill="none" xmlns="http://www.w3.org/2000/svg"><circle cx="12.5" cy="12.5" r="12.5" fill="#A1C44E"/><path d="M9.01 8.9h.76l2.9 7.1h-.96l-.84-2.08H7.89L7.06 16H6.1l2.91-7.1zm1.66 4.32L9.39 9.94l-1.32 3.28h2.6zm2.224-.82c0-.433.073-.857.22-1.27.153-.42.373-.8.66-1.14a3.16 3.16 0 011.07-.82c.42-.207.897-.31 1.43-.31.633 0 1.177.147 1.63.44.453.287.79.657 1.01 1.11l-.71.46a1.91 1.91 0 00-.54-.71 1.895 1.895 0 00-.7-.38 2.553 2.553 0 00-.73-.11c-.393 0-.743.08-1.05.24-.3.16-.553.373-.76.64a2.898 2.898 0 00-.47.9c-.1.327-.15.657-.15.99 0 .367.06.72.18 1.06.127.34.3.64.52.9.22.26.48.467.78.62.3.153.627.23.98.23.247 0 .5-.043.76-.13.26-.087.503-.22.73-.4a1.97 1.97 0 00.54-.72l.75.41a2.246 2.246 0 01-.68.9c-.307.247-.65.433-1.03.56-.373.127-.743.19-1.11.19a2.91 2.91 0 01-1.34-.31 3.601 3.601 0 01-1.06-.84 4.19 4.19 0 01-.69-1.18c-.16-.44-.24-.883-.24-1.33z" fill="#fff"/></svg>